<?xml version="1.0" encoding="UTF-8" standalone="no"?>
<!DOCTYPE svg PUBLIC "-//W3C//DTD SVG 1.1//EN" "http://www.w3.org/Graphics/SVG/1.1/DTD/svg11.dtd">
<svg version="1.1" xmlns="http://www.w3.org/2000/svg" xmlns:xlink="http://www.w3.org/1999/xlink" preserveAspectRatio="xMidYMid meet" viewBox="131.18653002866995 136.4394079185563 385.7018571241201 93.01599777460001" width="381.7" height="89.02">
    <defs>
        <path d="M159.47 142.21C159.47 142.97 159.65 143.68 159.97 144.32C159.97 144.32 159.97 144.32 159.97 144.32L132.19 167.91C150.23 167.74 160.25 167.65 162.26 167.63C162.75 169.3 164.14 170.6 165.87 170.95C165.87 170.95 165.87 170.95 165.87 170.95C168.89 199.29 170.58 215.03 170.91 218.18C169.96 219.05 169.36 220.3 169.36 221.69C169.36 221.69 169.36 221.69 169.36 221.69C169.36 224.32 171.5 226.46 174.13 226.46C174.13 226.46 174.13 226.46 174.13 226.46C176.76 226.46 178.9 224.32 178.9 221.69C178.9 221.69 178.9 221.69 178.9 221.69C178.9 221.42 178.87 221.16 178.83 220.91C178.83 220.91 178.83 220.91 178.83 220.91L192.16 207.84L192.16 207.84L196.46 167.3L218.81 167.09L235.18 146.46C195.44 143.48 173.36 141.83 168.95 141.5C168.61 139.2 166.63 137.44 164.24 137.44C164.24 137.44 164.24 137.44 164.24 137.44C161.61 137.44 159.47 139.57 159.47 142.21M162.25 142.21C162.25 141.11 163.14 140.22 164.24 140.22C164.24 140.22 164.24 140.22 164.24 140.22C165.33 140.22 166.22 141.11 166.22 142.21C166.22 142.21 166.22 142.21 166.22 142.21C166.22 143.3 165.33 144.19 164.24 144.19C164.24 144.19 164.24 144.19 164.24 144.19C163.14 144.19 162.25 143.3 162.25 142.21M166.02 146.62C167.14 146.17 168.05 145.31 168.55 144.22C168.55 144.22 168.55 144.22 168.55 144.22L195.63 146.26C194.89 148.67 194.48 150.02 194.4 150.28C192.46 150.74 190.98 152.38 190.76 154.4C190.76 154.4 190.76 154.4 190.76 154.4L167.34 158.98C166.64 152.39 166.2 148.27 166.02 146.62ZM161.84 146.32C162.29 146.58 162.77 146.77 163.3 146.88C163.3 146.88 163.3 146.88 163.3 146.88L164.65 159.51L140.83 164.16C152.04 154.65 159.04 148.7 161.84 146.32ZM198.19 150.98L198.67 146.47L222.27 148.24C208.72 150.89 201.2 152.36 199.69 152.66C199.33 151.99 198.81 151.41 198.19 150.98M197.3 159.33C198.92 158.66 200.08 157.15 200.24 155.34C200.24 155.34 200.24 155.34 200.24 155.34L229.13 149.69L217.49 164.36L196.75 164.56C197.04 161.77 197.23 160.02 197.3 159.33ZM193.51 154.92C193.51 153.82 194.4 152.93 195.5 152.93C195.5 152.93 195.5 152.93 195.5 152.93C196.59 152.93 197.48 153.82 197.48 154.92C197.48 154.92 197.48 154.92 197.48 154.92C197.48 156.01 196.59 156.9 195.5 156.9C195.5 156.9 195.5 156.9 195.5 156.9C194.4 156.9 193.51 156.01 193.51 154.92M167.95 161.65C181.93 158.92 189.7 157.4 191.26 157.09C191.45 157.48 191.7 157.82 191.99 158.14C191.99 158.14 191.99 158.14 191.99 158.14L190 164.63C178.81 164.73 172.6 164.79 171.36 164.81C170.85 163.24 169.56 162.04 167.95 161.65M194.41 159.55C194.45 159.56 194.49 159.58 194.53 159.59C194.53 159.59 194.53 159.59 194.53 159.59L193.99 164.59L192.87 164.6C193.69 161.91 194.2 160.23 194.41 159.55ZM164.05 162.41C163.21 163.02 162.57 163.88 162.27 164.89C162.27 164.89 162.27 164.89 162.27 164.89L150.8 165C157.87 163.62 162.28 162.76 164.05 162.41ZM164.84 166.28C164.84 165.18 165.73 164.3 166.83 164.3C166.83 164.3 166.83 164.3 166.83 164.3C167.92 164.3 168.81 165.18 168.81 166.28C168.81 166.28 168.81 166.28 168.81 166.28C168.81 167.38 167.92 168.27 166.83 168.27C166.83 168.27 166.83 168.27 166.83 168.27C165.73 168.27 164.84 167.38 164.84 166.28M176.6 217.62L192.03 167.35L193.7 167.33L189.54 206.58C182.33 213.64 178.33 217.57 177.53 218.35C177.25 218.07 176.94 217.82 176.6 217.62M168.59 170.7C169.97 170.16 171.02 168.99 171.42 167.54C171.42 167.54 171.42 167.54 171.42 167.54L189.15 167.37C180.03 197.11 174.96 213.63 173.95 216.93C173.81 216.94 173.67 216.95 173.54 216.96C173.54 216.96 173.54 216.96 173.54 216.96C170.9 192.29 169.25 176.87 168.59 170.7ZM172.14 221.69C172.14 220.59 173.03 219.7 174.13 219.7C174.13 219.7 174.13 219.7 174.13 219.7C175.23 219.7 176.12 220.59 176.12 221.69C176.12 221.69 176.12 221.69 176.12 221.69C176.12 222.79 175.23 223.68 174.13 223.68C174.13 223.68 174.13 223.68 174.13 223.68C173.03 223.68 172.14 222.79 172.14 221.69M200.19 198.2C200.19 198.2 200.19 198.2 200.19 198.2C200.19 200.64 202.14 202.58 204.58 202.58C204.58 202.58 204.58 202.58 204.58 202.58C207.01 202.58 208.93 200.64 208.93 198.2C208.93 198.2 208.93 198.2 208.93 198.2C208.93 195.76 207.01 193.84 204.6 193.84C204.6 193.84 204.6 193.84 204.6 193.84C201.66 195.12 200.19 196.57 200.19 198.2ZM204.6 201.68C202.71 201.68 201.28 200.14 201.28 198.2C201.28 198.2 201.28 198.2 201.28 198.2C201.28 196.29 202.71 194.72 204.55 194.72C204.55 194.72 204.55 194.72 204.55 194.72C204.57 194.72 204.57 194.72 204.58 194.72C206.44 194.72 207.84 196.29 207.84 198.23C207.84 198.23 207.84 198.23 207.84 198.23C207.84 200.12 206.47 201.68 204.65 201.68C204.65 201.68 204.65 201.68 204.65 201.68C204.63 201.68 204.62 201.68 204.6 201.68M202.92 196.1L202.92 200.46L203.9 200.46L203.9 198.73C204.18 198.73 204.34 198.73 204.37 198.73C204.91 198.73 205.17 198.94 205.25 199.4C205.25 199.4 205.25 199.4 205.25 199.4C205.38 199.93 205.46 200.3 205.59 200.46C205.59 200.46 205.59 200.46 205.59 200.46C206.21 200.46 206.55 200.46 206.62 200.46C206.55 200.3 206.44 200.06 206.31 199.4C206.31 199.4 206.31 199.4 206.31 199.4C206.18 198.81 205.98 198.47 205.56 198.33C205.56 198.33 205.56 198.33 205.56 198.33C205.56 198.3 205.56 198.28 205.56 198.28C206.05 198.12 206.44 197.77 206.44 197.24C206.44 197.24 206.44 197.24 206.44 197.24C206.44 196.82 206.26 196.5 206 196.31C206 196.31 206 196.31 206 196.31C205.72 196.1 205.35 195.97 204.55 195.97C204.55 195.97 204.55 195.97 204.55 195.97C203.85 195.97 203.31 196.05 202.92 196.1M203.93 196.76C204.03 196.74 204.21 196.71 204.47 196.71C204.47 196.71 204.47 196.71 204.47 196.71C205.09 196.71 205.38 196.98 205.38 197.38C205.38 197.38 205.38 197.38 205.38 197.38C205.38 197.83 204.94 198.01 204.39 198.01C204.39 198.01 204.39 198.01 204.39 198.01L203.93 198.01C203.93 197.35 203.93 196.93 203.93 196.76Z" id="b1jfvvrWwv"></path>
        <linearGradient id="gradienta9mGmiLJL9" gradientUnits="userSpaceOnUse" x1="171.29" y1="183.12" x2="200.63" y2="121.74">
            <stop style="stop-color: #e7de3d;stop-opacity: 1" offset="0%"></stop>
            <stop style="stop-color: #5095d0;stop-opacity: 1" offset="47.39314%"></stop>
            <stop style="stop-color: #5095d0;stop-opacity: 1" offset="100%"></stop>
        </linearGradient>
        <path d="M295.94 178.36L295.94 200.85L291.12 200.85C291.12 187.36 291.12 179.86 291.12 178.36C291.12 170.15 285.45 167.87 278.12 167.87C277.87 167.87 276.61 167.87 274.33 167.87L274.33 163.01L312.54 163.01L312.54 167.79C300.33 167.79 293.55 167.79 292.19 167.79C294.55 170.23 295.94 173.69 295.94 178.36M331.45 178.36L331.45 200.85L326.64 200.85C326.64 187.36 326.64 179.86 326.64 178.36C326.64 167.3 334.32 163.01 344.59 163.01C345.54 163.01 350.24 163.01 358.72 163.01L358.72 167.87C350.16 167.87 345.4 167.87 344.45 167.87C337.12 167.87 331.45 170.15 331.45 178.36M391.78 200.85C381.44 200.85 373.76 196.71 373.76 185.5C373.76 184 373.76 176.5 373.76 163.01L378.64 163.01C378.64 176.5 378.64 184 378.64 185.5C378.64 193.92 384.46 195.99 391.93 195.99C399.25 195.99 404.93 193.71 404.93 185.5C404.93 184 404.93 176.5 404.93 163.01L409.74 163.01C409.74 176.5 409.74 184 409.74 185.5C409.74 196.56 402.05 200.85 391.78 200.85M439.97 178.61C443.42 178.68 446.87 178.75 450.31 178.82C457.14 178.97 464.89 182.03 464.89 189.96C464.89 199.17 454.84 201.67 447.3 201.67C443.2 201.67 439.04 201.1 435.09 200.03C430.63 198.81 428.48 197.74 424.67 195.1C424.91 194.66 426.81 191.12 427.04 190.67C427.9 191.32 428.77 191.96 429.63 192.53C434.51 195.6 441.12 196.88 446.87 196.88C451.18 196.88 459.94 195.96 459.94 190.03C459.94 185.39 455.34 183.89 451.39 183.75C447.66 183.61 443.99 183.53 440.26 183.46C434.15 183.32 427.47 180.18 427.47 173.25C427.47 164.76 436.74 162.19 443.71 162.19C450.17 162.19 457.28 163.69 462.74 167.33C462.52 167.76 460.74 171.25 460.51 171.68C454.26 167.9 451.25 167.11 443.92 167.11C440.12 167.11 432.36 167.9 432.36 173.18C432.36 177.18 436.67 178.54 439.97 178.61M510.1 167.87C502.77 167.87 497.1 170.15 497.1 178.36C497.1 179.86 497.1 187.36 497.1 200.85L492.28 200.85C492.28 187.36 492.28 179.86 492.28 178.36C492.28 173.69 493.67 170.23 496.03 167.79C494.67 167.79 487.89 167.79 475.68 167.79L475.68 163.01L513.89 163.01L513.89 167.87C511.87 167.87 510.6 167.87 510.1 167.87Z" id="b4dPP3DJU"></path>
    </defs>
    <g>
        <g>
            <use xlink:href="#b1jfvvrWwv" opacity="1" fill="url(#gradienta9mGmiLJL9)"></use>
            <g>
                <use xlink:href="#b1jfvvrWwv" opacity="1" fill-opacity="0" stroke="#000000" stroke-width="1" stroke-opacity="0"></use>
            </g>
        </g>
        <g>
            <use xlink:href="#b4dPP3DJU" opacity="1" fill="#ffffff" fill-opacity="1"></use>
            <g>
                <use xlink:href="#b4dPP3DJU" opacity="1" fill-opacity="0" stroke="#000000" stroke-width="1" stroke-opacity="0"></use>
            </g>
        </g>
    </g>
</svg>